<?xml version="1.0" standalone="no"?>
<!DOCTYPE svg PUBLIC "-//W3C//DTD SVG 20010904//EN"
 "http://www.w3.org/TR/2001/REC-SVG-20010904/DTD/svg10.dtd">
<svg version="1.0" xmlns="http://www.w3.org/2000/svg"
 width="325.000000pt" height="325.000000pt" viewBox="0 0 325.000000 325.000000"
 preserveAspectRatio="xMidYMid meet">
<metadata>
Created by potrace 1.11, written by Peter Selinger 2001-2013
</metadata>
<g transform="translate(0.000000,325.000000) scale(0.100000,-0.100000)"
fill="#000000" stroke="none">
<path d="M590 2526 c0 -9 811 -1410 1000 -1730 l23 -38 20 23 c10 13 16 18 12
12 -3 -7 -4 -13 -1 -13 9 0 1016 1730 1016 1745 0 3 -167 4 -372 3 l-372 -3
-141 -244 c-77 -134 -145 -244 -150 -244 -5 0 -73 110 -150 244 l-141 244
-372 3 c-205 1 -372 0 -372 -2z m829 -329 c77 -134 143 -250 146 -258 3 -8
-22 -60 -55 -117 -33 -57 -60 -108 -60 -114 0 -21 173 -309 180 -301 4 4 39
63 78 131 l70 122 -54 0 c-53 0 -54 -1 -74 -40 -11 -22 -22 -40 -24 -40 -3 0
-21 29 -41 65 l-36 65 37 61 37 62 18 -24 c10 -13 21 -32 25 -41 4 -14 17 -18
61 -18 l55 0 -22 38 c-58 97 -81 142 -77 149 2 4 68 119 147 256 l142 247 268
0 269 0 -106 -182 c-58 -101 -254 -442 -435 -758 -182 -316 -334 -579 -338
-583 -4 -5 -58 81 -121 190 -150 264 -737 1282 -755 1311 l-14 22 269 0 269 0
141 -243z"/>
</g>
</svg>
